<?xml version="1.0" standalone="no"?>
<!DOCTYPE svg PUBLIC "-//W3C//DTD SVG 20010904//EN"
 "http://www.w3.org/TR/2001/REC-SVG-20010904/DTD/svg10.dtd">
<svg version="1.0" xmlns="http://www.w3.org/2000/svg"
 width="1024.000000pt" height="1024.000000pt" viewBox="0 0 1024.000000 1024.000000"
 preserveAspectRatio="xMidYMid meet">

<g transform="translate(0.000000,1024.000000) scale(0.100000,-0.100000)"
fill="#000000" stroke="none">
<path d="M5345 8458 c-338 -35 -545 -191 -545 -413 0 -55 6 -75 40 -141 39
-75 39 -77 27 -128 -7 -30 -12 -123 -11 -231 0 -183 7 -232 58 -397 9 -33 10
-46 3 -41 -29 17 -345 235 -370 255 -27 23 -28 24 -16 77 44 204 -112 397
-361 446 -41 8 -144 18 -229 22 l-154 6 7 -24 c21 -75 36 -155 46 -242 14
-135 26 -182 62 -250 71 -133 204 -206 351 -193 l72 6 65 -46 c36 -25 117 -80
180 -121 368 -242 454 -307 566 -427 l80 -84 34 66 c115 222 391 494 638 629
156 85 374 142 479 126 l32 -5 -72 -47 c-204 -134 -580 -469 -741 -661 -64
-75 -169 -231 -161 -238 2 -2 23 9 47 25 140 95 333 190 448 223 106 29 242
50 331 50 l76 0 59 58 c104 103 146 191 219 457 73 267 149 409 294 548 39 38
71 70 71 72 0 1 -51 11 -112 21 -174 29 -551 27 -708 -4 -189 -36 -284 -68
-435 -144 -194 -98 -387 -276 -508 -470 -23 -37 -45 -67 -48 -68 -4 0 -9 12
-12 28 -3 15 -17 72 -32 127 -21 78 -28 131 -32 240 -7 178 0 204 52 220 66
19 119 51 157 93 75 83 97 155 108 352 5 85 14 172 20 193 6 22 10 40 8 41 -2
1 -39 -2 -83 -6z"/>
<path d="M3345 6966 c-160 -20 -288 -43 -382 -71 -121 -35 -125 -39 -72 -62
123 -55 340 -261 452 -430 36 -54 107 -181 157 -282 51 -102 117 -223 148
-269 66 -100 208 -251 329 -353 49 -40 93 -77 98 -82 6 -4 -42 10 -105 33
-254 92 -578 156 -915 180 -150 11 -415 11 -415 -1 0 -3 9 -14 21 -25 37 -33
158 -223 214 -334 73 -145 117 -276 176 -520 116 -478 223 -705 446 -940 169
-178 381 -298 617 -349 121 -26 416 -42 416 -22 0 18 -62 109 -121 176 -166
190 -504 438 -762 560 -58 28 -106 53 -107 56 -1 21 183 24 290 5 361 -67 730
-334 883 -641 76 -151 71 -94 75 -942 l3 -763 109 0 109 0 6 48 c42 335 139
540 359 757 147 145 313 245 541 325 366 129 491 197 662 364 189 182 304 382
368 637 58 231 123 415 207 584 50 102 70 133 135 223 l53 72 -83 0 c-96 0
-365 -24 -516 -46 -279 -41 -590 -129 -820 -232 -227 -102 -369 -200 -525
-362 -111 -116 -198 -242 -268 -384 -37 -76 -47 -91 -41 -61 13 66 6 343 -11
446 -35 212 -126 449 -241 626 -76 117 -116 164 -265 317 -69 70 -116 126
-105 122 59 -17 140 -26 244 -26 l116 -1 50 -59 c28 -32 53 -59 57 -59 12 -1
-3 60 -34 136 -109 266 -393 586 -753 848 -124 90 -336 219 -429 261 -36 16
-66 32 -66 35 0 10 56 19 115 19 229 0 581 -158 865 -387 175 -142 373 -372
470 -547 l39 -72 103 101 c113 111 267 220 401 284 98 47 295 113 392 132 95
19 384 17 443 -3 l43 -14 -98 -33 c-410 -137 -759 -352 -1023 -627 -93 -97
-199 -231 -246 -309 -29 -48 -84 -166 -84 -179 0 -8 156 -7 345 4 543 30 899
235 1147 660 34 58 84 143 111 190 151 256 357 460 591 584 l48 26 -28 11
c-121 47 -173 64 -291 94 -269 68 -360 80 -638 79 -232 0 -259 -2 -375 -27
-290 -61 -543 -172 -718 -314 -24 -20 -44 -34 -45 -32 -1 2 -17 33 -36 69 -55
104 -135 207 -255 326 -236 234 -551 394 -894 455 -150 27 -520 35 -687 15z
m368 -1918 c234 -149 353 -285 427 -487 17 -46 29 -86 26 -88 -2 -3 -50 22
-107 54 -173 98 -303 238 -378 407 -32 70 -63 166 -55 166 3 0 42 -23 87 -52z
m2806 -914 c-352 -249 -890 -758 -1326 -1255 -91 -104 -167 -189 -168 -189 -2
0 8 44 20 98 46 190 125 368 241 539 90 132 144 195 293 343 229 228 517 413
766 493 96 31 110 34 199 36 l69 1 -94 -66z"/>
</g>
</svg>
